<?xml version="1.0" encoding="UTF-8" standalone="no"?>
<svg
   xmlns:dc="http://purl.org/dc/elements/1.1/"
   xmlns:cc="http://creativecommons.org/ns#"
   xmlns:rdf="http://www.w3.org/1999/02/22-rdf-syntax-ns#"
   xmlns:svg="http://www.w3.org/2000/svg"
   xmlns="http://www.w3.org/2000/svg"
   viewBox="0 0 480 480"
   height="480"
   width="480"
   xml:space="preserve"
   id="svg2"
   version="1.1"><metadata
     id="metadata8"><rdf:RDF><cc:Work
         rdf:about=""><dc:format>image/svg+xml</dc:format><dc:type
           rdf:resource="http://purl.org/dc/dcmitype/StillImage" /><dc:title></dc:title></cc:Work></rdf:RDF></metadata><defs
     id="defs6"><clipPath
       id="clipPath20"
       clipPathUnits="userSpaceOnUse"><path
         id="path18"
         d="M 0,360 H 360 V 0 H 0 Z" /></clipPath></defs><g
     transform="matrix(1.3333333,0,0,-1.3333333,0,480)"
     id="g10"><g
       transform="matrix(0.47052653,0,0,-0.47052653,246.62093,314.21309)"
       id="g3861"><path
         id="path3851"
         d="m 85.262,40.783 -3.75,-3.75 H 62.023 l -5.74,9.943 H 43.717 l -6.281,-10.88 6.281,-10.881 h 12.566 l 5.74,9.944 H 79.638 L 59.217,14.738 C 56.754,12.276 53.483,10.921 50,10.921 c -3.482,0 -6.755,1.355 -9.217,3.817 L 14.739,40.783 C 12.277,43.245 10.92,46.517 10.92,50 c 0,3.483 1.356,6.754 3.818,9.217 l 4.123,4.123 h 19.115 l 5.74,-9.943 h 12.566 l 6.281,10.881 -6.281,10.881 H 43.717 l -5.74,-9.945 H 20.735 l 20.048,20.049 c 2.462,2.461 5.734,3.818 9.217,3.818 3.481,0 6.754,-1.357 9.217,-3.818 L 85.262,59.218 C 87.723,56.754 89.08,53.48 89.08,50 c 0,-3.483 -1.357,-6.755 -3.818,-9.217 z M 71.844,58.32 H 62.237 L 58.055,51.078 H 41.946 L 37.764,58.32 H 28.157 L 23.353,50 28.157,41.68 h 9.607 l 4.182,7.243 h 16.109 l 4.182,-7.243 h 9.607 L 76.646,50 Z"
         style="fill:none" /><polygon
         id="polygon3853"
         points="58.672,64.277 54.336,56.768 45.664,56.768 41.328,64.277 45.664,71.787 54.336,71.787 "
         style="fill:none" /><polygon
         id="polygon3855"
         points="41.328,36.096 45.664,43.606 54.336,43.606 58.672,36.096 54.336,28.586 45.664,28.586 "
         style="fill:none" /><path
         id="path3857"
         d="M 87.645,38.4 61.6,12.355 C 58.5,9.256 54.383,7.55 50,7.55 c -4.382,0 -8.502,1.706 -11.6,4.805 L 12.356,38.4 C 9.256,41.498 7.55,45.618 7.55,50 c 0,4.383 1.706,8.5 4.806,11.6 L 38.4,87.645 c 3.097,3.098 7.218,4.805 11.6,4.805 4.383,0 8.502,-1.707 11.6,-4.805 L 87.645,61.6 C 90.743,58.502 92.45,54.383 92.45,50 92.449,45.618 90.742,41.497 87.645,38.4 Z M 85.262,59.217 59.217,85.262 C 56.754,87.723 53.48,89.08 50,89.08 c -3.482,0 -6.755,-1.357 -9.217,-3.818 L 20.735,65.213 h 17.242 l 5.74,9.945 H 56.283 L 62.564,64.277 56.283,53.396 H 43.717 l -5.74,9.943 H 18.862 L 14.739,59.216 C 12.277,56.754 10.92,53.482 10.92,50 c 0,-3.482 1.356,-6.755 3.818,-9.217 L 40.782,14.739 c 2.462,-2.462 5.734,-3.817 9.217,-3.817 3.483,0 6.754,1.355 9.217,3.817 L 79.639,35.16 H 62.023 l -5.74,-9.944 H 43.717 l -6.281,10.881 6.281,10.88 h 12.566 l 5.74,-9.943 h 19.488 l 3.75,3.75 c 2.461,2.462 3.818,5.734 3.818,9.217 0.001,3.479 -1.356,6.753 -3.817,9.216 z m -43.934,5.06 4.336,-7.51 h 8.672 l 4.336,7.51 -4.336,7.51 h -8.672 z m 17.344,-28.181 -4.336,7.51 h -8.672 l -4.336,-7.51 4.336,-7.51 h 8.672 z" /><polygon
         id="polygon3859"
         points="71.844,41.679 62.236,41.679 58.055,48.922 41.946,48.922 37.764,41.679 28.157,41.679 23.353,50 28.157,58.32 37.764,58.32 41.946,51.078 58.055,51.078 62.236,58.32 71.844,58.32 76.646,50 " /></g><g
       id="g3954"
       transform="translate(14.672542,105.66281)"><g
         transform="translate(225,205)"
         id="g3942" /><path
         id="path3944"
         style="fill:none;stroke:#000000;stroke-width:3;stroke-linecap:butt;stroke-linejoin:miter;stroke-miterlimit:10;stroke-dasharray:none;stroke-opacity:1"
         d="M 225,205 V 165" /><text
         id="text3948"
         style="font-variant:normal;font-weight:normal;font-stretch:normal;font-size:6px;font-family:Montserrat;-inkscape-font-specification:Montserrat-Regular;writing-mode:lr-tb;fill:#231f20;fill-opacity:1;fill-rule:nonzero;stroke:none"
         transform="scale(1,-1)"
         x="105.98633"
         y="-167.0479"><tspan
           id="tspan3946"
           x="105.98633"
           y="-167.0479"
           style="font-size:14px">NEW ENGLAND</tspan></text>
<text
         id="text3952"
         style="font-variant:normal;font-weight:bold;font-stretch:normal;font-size:24px;font-family:Montserrat;-inkscape-font-specification:Montserrat-Bold;writing-mode:lr-tb;fill:#231f20;fill-opacity:1;fill-rule:nonzero;stroke:none"
         transform="scale(1,-1)"
         x="-3.480469"
         y="-182.1924"><tspan
           id="tspan3950"
           x="-3.480469"
           y="-182.1924">COMPUTER BANK</tspan></text>
</g></g></svg>