<svg xmlns:dc="http://purl.org/dc/elements/1.1/" xmlns:cc="http://creativecommons.org/ns#" xmlns:rdf="http://www.w3.org/1999/02/22-rdf-syntax-ns#" xmlns:svg="http://www.w3.org/2000/svg" xmlns="http://www.w3.org/2000/svg" xmlns:sodipodi="http://sodipodi.sourceforge.net/DTD/sodipodi-0.dtd" xmlns:inkscape="http://www.inkscape.org/namespaces/inkscape" version="1.1" x="0px" y="0px" viewBox="0 0 100 125"><g transform="translate(0,-952.36218)"><path d="m 75.624,968.36217 15.9217,5.31201 c 2.1057,10.75791 2.924,22.06381 2.9543,33.30102 -4.4449,1.492 -11.5996,0.7543 -17.2279,-0.1553 0.01,-12.84256 -0.7962,-25.67505 -1.6481,-38.45773 z m -1.7103,4.22476 c 1.3232,20.24392 2.3542,40.46347 0.031,60.60667 l -21.3015,-9.2261 0,-2.3609 12.501,0 c 0.5211,-10e-5 0.995,-0.4736 0.9951,-0.9941 0,-11.4096 0,-24.90386 -1.897,-41.00501 z M 5.4999999,975.91082 61.9412,977.37085 c 2.1278,16.63728 2.2066,30.45335 2.208,42.24765 l -57.1254001,0 c 0.6576,-11.2761 -0.093,-27.71447 -1.5238,-43.70768 z M 83.5227,981.09858 c 0.9478,3.78716 0.964,8.72911 0.964,10.71723 -0.01,0.52516 0.4693,1.00821 0.995,1.00821 0.5259,0 1.0026,-0.48305 0.9952,-1.00821 0,-1.98812 0.016,-7.01786 -1.0262,-11.18319 -0.1015,-0.45507 -0.5602,-0.80229 -1.0262,-0.77662 -0.9018,0.24891 -0.9018,1.24258 -0.9018,1.24258 z m -6.2816,27.74052 c 5.4064,0.875 12.1604,1.6791 17.2278,0.2174 -0.044,7.6685 -0.4167,15.2878 -0.9951,22.6771 l -2.8299,0.5591 -1.4927,-1.4289 c -0.2168,-0.2153 -0.5368,-0.3219 -0.8395,-0.2796 l -6.9658,0.9941 c -0.2754,0.041 -0.5305,0.2029 -0.6841,0.4349 l -1.7726,2.6094 -3.2652,0.6834 c 1.1096,-8.8259 1.5528,-17.6456 1.6171,-26.4669 z m -48.4804,12.7675 8.9559,0 0,4.0073 c 1e-4,0.5205 0.4741,0.994 0.9952,0.9941 l 4.5401,0 6.8414,7.7039 -7.0279,-0.7145 -3.7629,-2.8268 c -0.1951,-0.1424 -0.4435,-0.21 -0.6841,-0.1864 l -10.9462,0.9941 c -0.3353,0.024 -0.6518,0.2309 -0.8085,0.5281 l -1.7415,3.5102 -7.4943,0.7456 5.5353,-9.7542 4.6023,0 c 0.521,-10e-5 0.9951,-0.4736 0.9952,-0.9941 z" style="text-indent:0;text-transform:none;direction:ltr;block-progression:tb;baseline-shift:baseline;color:#000000;enable-background:accumulate;" fill="#000000" fill-opacity="1" stroke="none" marker="none" visibility="visible" display="inline" overflow="visible"/></g><text x="0" y="115" fill="#000000" font-size="5px" font-weight="bold" font-family="'Helvetica Neue', Helvetica, Arial-Unicode, Arial, Sans-serif">Created by art shop</text><text x="0" y="120" fill="#000000" font-size="5px" font-weight="bold" font-family="'Helvetica Neue', Helvetica, Arial-Unicode, Arial, Sans-serif">from the Noun Project</text></svg>