<?xml version="1.0" encoding="UTF-8" standalone="no"?>
<!-- Created with Inkscape (http://www.inkscape.org/) -->

<svg
   xmlns:dc="http://purl.org/dc/elements/1.1/"
   xmlns:cc="http://creativecommons.org/ns#"
   xmlns:rdf="http://www.w3.org/1999/02/22-rdf-syntax-ns#"
   xmlns:svg="http://www.w3.org/2000/svg"
   xmlns="http://www.w3.org/2000/svg"
   xmlns:sodipodi="http://sodipodi.sourceforge.net/DTD/sodipodi-0.dtd"
   xmlns:inkscape="http://www.inkscape.org/namespaces/inkscape"
   version="1.1"
   id="svg2"
   xml:space="preserve"
   width="480"
   height="480"
   viewBox="0 0 480 480"
   sodipodi:docname="CBNE Logo.svg"
   inkscape:version="0.92.1 r"><metadata
     id="metadata8"><rdf:RDF><cc:Work
         rdf:about=""><dc:format>image/svg+xml</dc:format><dc:type
           rdf:resource="http://purl.org/dc/dcmitype/StillImage" /><dc:title></dc:title></cc:Work></rdf:RDF></metadata><defs
     id="defs6"><clipPath
       clipPathUnits="userSpaceOnUse"
       id="clipPath20"><path
         d="M 0,360 H 360 V 0 H 0 Z"
         id="path18"
         inkscape:connector-curvature="0" /></clipPath></defs><sodipodi:namedview
     pagecolor="#ffffff"
     bordercolor="#666666"
     borderopacity="1"
     objecttolerance="10"
     gridtolerance="10"
     guidetolerance="10"
     inkscape:pageopacity="0"
     inkscape:pageshadow="2"
     inkscape:window-width="1680"
     inkscape:window-height="1008"
     id="namedview4"
     showgrid="false"
     inkscape:zoom="1.4142136"
     inkscape:cx="190.60065"
     inkscape:cy="357.60861"
     inkscape:window-x="0"
     inkscape:window-y="0"
     inkscape:window-maximized="1"
     inkscape:current-layer="g10"
     inkscape:measure-start="285.569,230.491"
     inkscape:measure-end="297.996,230.514"
     showborder="false" /><g
     id="g10"
     inkscape:groupmode="layer"
     inkscape:label="Stockholm"
     transform="matrix(1.3333333,0,0,-1.3333333,0,480)"><g
       id="g4081"
       transform="translate(-23.069359)"><g
         transform="translate(60.81126,1.7181076)"
         id="g3931"><g
           id="g30"
           transform="translate(225,205)" /><path
           d="M 225,205 V 165"
           style="fill:none;stroke:#000000;stroke-width:3;stroke-linecap:butt;stroke-linejoin:miter;stroke-miterlimit:10;stroke-dasharray:none;stroke-opacity:1"
           id="path32"
           inkscape:connector-curvature="0" /><text
           y="-167.0479"
           x="105.98633"
           transform="scale(1,-1)"
           style="font-variant:normal;font-weight:normal;font-stretch:normal;font-size:6px;font-family:Montserrat;-inkscape-font-specification:Montserrat-Regular;writing-mode:lr-tb;fill:#231f20;fill-opacity:1;fill-rule:nonzero;stroke:none"
           id="text36"><tspan
             style="font-size:14px"
             y="-167.0479"
             x="105.98633"
             sodipodi:role="line"
             id="tspan34">NEW ENGLAND</tspan></text>
<text
           y="-182.1924"
           x="-3.480469"
           transform="scale(1,-1)"
           style="font-variant:normal;font-weight:bold;font-stretch:normal;font-size:24px;font-family:Montserrat;-inkscape-font-specification:Montserrat-Bold;writing-mode:lr-tb;fill:#231f20;fill-opacity:1;fill-rule:nonzero;stroke:none"
           id="text40"><tspan
             y="-182.1924"
             x="-3.480469"
             sodipodi:role="line"
             id="tspan38">COMPUTER BANK</tspan></text>
</g><g
         id="g3768"
         transform="matrix(0.58742087,0,0,-0.58742087,293.06562,775.9834)"><path
           id="path3766"
           overflow="visible"
           display="inline"
           visibility="visible"
           marker="none"
           style="color:#000000;text-indent:0;text-transform:none;direction:ltr;baseline-shift:baseline;display:inline;overflow:visible;visibility:visible;fill:#000000;fill-opacity:1;stroke:none;enable-background:accumulate"
           d="m 75.624,969.13984 15.9217,5.31201 c 2.1057,10.75791 2.924,22.06381 2.9543,33.30105 -4.4449,1.492 -11.5996,0.7543 -17.2279,-0.1553 0.01,-12.84259 -0.7962,-25.67508 -1.6481,-38.45776 z m -1.7103,4.22476 c 1.3232,20.24392 2.3542,40.4635 0.031,60.6067 l -21.3015,-9.2261 v -2.3609 h 12.501 c 0.5211,-1e-4 0.995,-0.4736 0.9951,-0.9941 0,-11.4096 0,-24.90389 -1.897,-41.00504 z M 5.4999999,976.68849 61.9412,978.14852 c 2.1278,16.63728 2.2066,30.45338 2.208,42.24768 H 7.0237999 c 0.6576,-11.2761 -0.093,-27.7145 -1.5238,-43.70771 z M 83.5227,981.87625 c 0.9478,3.78716 0.964,8.72911 0.964,10.71723 -0.01,0.52516 0.4693,1.00821 0.995,1.00821 0.5259,0 1.0026,-0.48305 0.9952,-1.00821 0,-1.98812 0.016,-7.01786 -1.0262,-11.18319 -0.1015,-0.45507 -0.5602,-0.80229 -1.0262,-0.77662 -0.9018,0.24891 -0.9018,1.24258 -0.9018,1.24258 z m -6.2816,27.74055 c 5.4064,0.875 12.1604,1.6791 17.2278,0.2174 -0.044,7.6685 -0.4167,15.2878 -0.9951,22.6771 l -2.8299,0.5591 -1.4927,-1.4289 c -0.2168,-0.2153 -0.5368,-0.3219 -0.8395,-0.2796 l -6.9658,0.9941 c -0.2754,0.041 -0.5305,0.2029 -0.6841,0.4349 l -1.7726,2.6094 -3.2652,0.6834 c 1.1096,-8.8259 1.5528,-17.6456 1.6171,-26.4669 z m -48.4804,12.7675 h 8.9559 v 4.0073 c 1e-4,0.5205 0.4741,0.994 0.9952,0.9941 h 4.5401 l 6.8414,7.7039 -7.0279,-0.7145 -3.7629,-2.8268 c -0.1951,-0.1424 -0.4435,-0.21 -0.6841,-0.1864 l -10.9462,0.9941 c -0.3353,0.024 -0.6518,0.2309 -0.8085,0.5281 l -1.7415,3.5102 -7.4943,0.7456 5.5353,-9.7542 h 4.6023 c 0.521,-10e-5 0.9951,-0.4736 0.9952,-0.9941 z"
           inkscape:connector-curvature="0" /></g></g><g
       id="g4070"
       transform="translate(29.227892)"><g
         transform="matrix(0.47052653,0,0,-0.47052653,246.62093,314.21309)"
         id="g3861"><path
           id="path3851"
           d="m 85.262,40.783 -3.75,-3.75 H 62.023 l -5.74,9.943 H 43.717 l -6.281,-10.88 6.281,-10.881 h 12.566 l 5.74,9.944 H 79.638 L 59.217,14.738 C 56.754,12.276 53.483,10.921 50,10.921 c -3.482,0 -6.755,1.355 -9.217,3.817 L 14.739,40.783 C 12.277,43.245 10.92,46.517 10.92,50 c 0,3.483 1.356,6.754 3.818,9.217 l 4.123,4.123 h 19.115 l 5.74,-9.943 h 12.566 l 6.281,10.881 -6.281,10.881 H 43.717 l -5.74,-9.945 H 20.735 l 20.048,20.049 c 2.462,2.461 5.734,3.818 9.217,3.818 3.481,0 6.754,-1.357 9.217,-3.818 L 85.262,59.218 C 87.723,56.754 89.08,53.48 89.08,50 c 0,-3.483 -1.357,-6.755 -3.818,-9.217 z M 71.844,58.32 H 62.237 L 58.055,51.078 H 41.946 L 37.764,58.32 H 28.157 L 23.353,50 28.157,41.68 h 9.607 l 4.182,7.243 h 16.109 l 4.182,-7.243 h 9.607 L 76.646,50 Z"
           inkscape:connector-curvature="0"
           style="fill:none" /><polygon
           id="polygon3853"
           points="54.336,56.768 45.664,56.768 41.328,64.277 45.664,71.787 54.336,71.787 58.672,64.277 "
           style="fill:none" /><polygon
           id="polygon3855"
           points="45.664,43.606 54.336,43.606 58.672,36.096 54.336,28.586 45.664,28.586 41.328,36.096 "
           style="fill:none" /><path
           id="path3857"
           d="M 87.645,38.4 61.6,12.355 C 58.5,9.256 54.383,7.55 50,7.55 c -4.382,0 -8.502,1.706 -11.6,4.805 L 12.356,38.4 C 9.256,41.498 7.55,45.618 7.55,50 c 0,4.383 1.706,8.5 4.806,11.6 L 38.4,87.645 c 3.097,3.098 7.218,4.805 11.6,4.805 4.383,0 8.502,-1.707 11.6,-4.805 L 87.645,61.6 C 90.743,58.502 92.45,54.383 92.45,50 92.449,45.618 90.742,41.497 87.645,38.4 Z M 85.262,59.217 59.217,85.262 C 56.754,87.723 53.48,89.08 50,89.08 c -3.482,0 -6.755,-1.357 -9.217,-3.818 L 20.735,65.213 h 17.242 l 5.74,9.945 H 56.283 L 62.564,64.277 56.283,53.396 H 43.717 l -5.74,9.943 H 18.862 L 14.739,59.216 C 12.277,56.754 10.92,53.482 10.92,50 c 0,-3.482 1.356,-6.755 3.818,-9.217 L 40.782,14.739 c 2.462,-2.462 5.734,-3.817 9.217,-3.817 3.483,0 6.754,1.355 9.217,3.817 L 79.639,35.16 H 62.023 l -5.74,-9.944 H 43.717 l -6.281,10.881 6.281,10.88 h 12.566 l 5.74,-9.943 h 19.488 l 3.75,3.75 c 2.461,2.462 3.818,5.734 3.818,9.217 0.001,3.479 -1.356,6.753 -3.817,9.216 z m -43.934,5.06 4.336,-7.51 h 8.672 l 4.336,7.51 -4.336,7.51 h -8.672 z m 17.344,-28.181 -4.336,7.51 h -8.672 l -4.336,-7.51 4.336,-7.51 h 8.672 z"
           inkscape:connector-curvature="0" /><polygon
           id="polygon3859"
           points="62.236,41.679 58.055,48.922 41.946,48.922 37.764,41.679 28.157,41.679 23.353,50 28.157,58.32 37.764,58.32 41.946,51.078 58.055,51.078 62.236,58.32 71.844,58.32 76.646,50 71.844,41.679 " /></g><g
         id="g3954"
         transform="translate(14.672542,105.66281)"><g
           transform="translate(225,205)"
           id="g3942" /><path
           inkscape:connector-curvature="0"
           id="path3944"
           style="fill:none;stroke:#000000;stroke-width:3;stroke-linecap:butt;stroke-linejoin:miter;stroke-miterlimit:10;stroke-dasharray:none;stroke-opacity:1"
           d="M 225,205 V 165" /><text
           id="text3948"
           style="font-variant:normal;font-weight:normal;font-stretch:normal;font-size:6px;font-family:Montserrat;-inkscape-font-specification:Montserrat-Regular;writing-mode:lr-tb;fill:#231f20;fill-opacity:1;fill-rule:nonzero;stroke:none"
           transform="scale(1,-1)"
           x="105.98633"
           y="-167.0479"><tspan
             id="tspan3946"
             sodipodi:role="line"
             x="105.98633"
             y="-167.0479"
             style="font-size:14px">NEW ENGLAND</tspan></text>
<text
           id="text3952"
           style="font-variant:normal;font-weight:bold;font-stretch:normal;font-size:24px;font-family:Montserrat;-inkscape-font-specification:Montserrat-Bold;writing-mode:lr-tb;fill:#231f20;fill-opacity:1;fill-rule:nonzero;stroke:none"
           transform="scale(1,-1)"
           x="-3.480469"
           y="-182.1924"><tspan
             id="tspan3950"
             sodipodi:role="line"
             x="-3.480469"
             y="-182.1924">COMPUTER BANK</tspan></text>
</g></g></g></svg>