<?xml version="1.0" encoding="UTF-8" standalone="no"?>
<svg
   xmlns:dc="http://purl.org/dc/elements/1.1/"
   xmlns:cc="http://creativecommons.org/ns#"
   xmlns:rdf="http://www.w3.org/1999/02/22-rdf-syntax-ns#"
   xmlns:svg="http://www.w3.org/2000/svg"
   xmlns="http://www.w3.org/2000/svg"
   xmlns:sodipodi="http://sodipodi.sourceforge.net/DTD/sodipodi-0.dtd"
   xmlns:inkscape="http://www.inkscape.org/namespaces/inkscape"
   viewBox="0 0 400.73438 53.333332"
   height="53.333"
   width="400.734"
   version="1.1"
   id="svg22"
   sodipodi:docname="Logo original.svg"
   inkscape:version="0.92.1 r">
  <metadata
     id="metadata28">
    <rdf:RDF>
      <cc:Work
         rdf:about="">
        <dc:format>image/svg+xml</dc:format>
        <dc:type
           rdf:resource="http://purl.org/dc/dcmitype/StillImage" />
        <dc:title></dc:title>
      </cc:Work>
    </rdf:RDF>
  </metadata>
  <defs
     id="defs26" />
  <sodipodi:namedview
     pagecolor="#ffffff"
     bordercolor="#666666"
     borderopacity="1"
     objecttolerance="10"
     gridtolerance="10"
     guidetolerance="10"
     inkscape:pageopacity="0"
     inkscape:pageshadow="2"
     inkscape:window-width="1680"
     inkscape:window-height="1016"
     id="namedview24"
     showgrid="false"
     inkscape:zoom="3.7032045"
     inkscape:cx="200.367"
     inkscape:cy="26.6665"
     inkscape:window-x="0"
     inkscape:window-y="0"
     inkscape:window-maximized="1"
     inkscape:current-layer="svg22" />
  <path
     d="M317.047 0v53.333"
     fill="none"
     stroke="#000"
     stroke-width="4"
     stroke-miterlimit="10"
     id="path10" />
  <text
     y="-167.048"
     x="105.986"
     transform="translate(17.047 273.333) scale(1.33333)"
     style="-inkscape-font-specification:Montserrat-Regular"
     font-weight="400"
     font-size="6"
     font-family="Montserrat"
     fill="#4a5767"
     id="text14">
    <tspan
       y="-167.048"
       x="105.986"
       font-size="14"
       id="tspan12">NEW ENGLAND</tspan>
  </text>
  <text
     y="-185.192"
     x="-13.98"
     transform="translate(17.047 273.333) scale(1.33333)"
     style="-inkscape-font-specification:Montserrat-Bold"
     font-weight="700"
     font-size="24"
     font-family="Montserrat"
     id="text18">
    <tspan
       y="-185.192"
       x="-13.98"
       id="tspan16">COMPUTERBANK</tspan>
  </text>
  <path
     overflow="visible"
     style="text-indent:0;text-transform:none"
     d="M385.95.037l12.47 4.16c1.65 8.426 2.29 17.281 2.314 26.083-3.481 1.168-9.085.59-13.493-.122.008-10.059-.624-20.11-1.29-30.121zm-1.34 3.309c1.037 15.855 1.844 31.692.025 47.469l-16.684-7.226v-1.85h9.791a.81.81 0 0 0 .78-.778c0-8.936 0-19.506-1.486-32.116zm-53.583 2.603l44.206 1.144c1.667 13.03 1.729 23.852 1.73 33.09H332.22c.515-8.832-.073-21.707-1.194-34.234zm61.11 4.063c.742 2.967.755 6.837.755 8.394-.008.412.367.79.779.79.412 0 .785-.378.78-.79 0-1.557.012-5.496-.804-8.759a.805.805 0 0 0-.804-.608c-.706.195-.706.973-.706.973zm-4.92 21.728c4.234.685 9.524 1.315 13.493.17-.034 6.006-.326 11.974-.78 17.761l-2.216.438-1.169-1.12a.793.793 0 0 0-.657-.218l-5.456.779a.79.79 0 0 0-.536.34l-1.388 2.044-2.558.535c.87-6.912 1.216-13.82 1.267-20.73zm-37.971 10h7.014v3.138a.81.81 0 0 0 .78.779h3.555l5.359 6.034-5.505-.56-2.947-2.214a.788.788 0 0 0-.536-.146l-8.573.779a.794.794 0 0 0-.633.413l-1.364 2.75-5.87.583 4.335-7.64h3.605a.81.81 0 0 0 .78-.778z"
     color="#000"
     fill="#4389e4"
     id="path20" />
</svg>
