<?xml version="1.0" encoding="UTF-8" standalone="no"?>
<svg
   xmlns:dc="http://purl.org/dc/elements/1.1/"
   xmlns:cc="http://creativecommons.org/ns#"
   xmlns:rdf="http://www.w3.org/1999/02/22-rdf-syntax-ns#"
   xmlns:svg="http://www.w3.org/2000/svg"
   xmlns="http://www.w3.org/2000/svg"
   xmlns:sodipodi="http://sodipodi.sourceforge.net/DTD/sodipodi-0.dtd"
   xmlns:inkscape="http://www.inkscape.org/namespaces/inkscape"
   width="406.635"
   height="53.333"
   viewBox="0 0 107.58875 14.110932"
   version="1.1"
   id="svg22"
   sodipodi:docname="Logo.svg"
   inkscape:version="0.92.1 r">
  <metadata
     id="metadata28">
    <rdf:RDF>
      <cc:Work
         rdf:about="">
        <dc:format>image/svg+xml</dc:format>
        <dc:type
           rdf:resource="http://purl.org/dc/dcmitype/StillImage" />
        <dc:title></dc:title>
      </cc:Work>
    </rdf:RDF>
  </metadata>
  <defs
     id="defs26" />
  <sodipodi:namedview
     pagecolor="#ffffff"
     bordercolor="#666666"
     borderopacity="1"
     objecttolerance="10"
     gridtolerance="10"
     guidetolerance="10"
     inkscape:pageopacity="0"
     inkscape:pageshadow="2"
     inkscape:window-width="1680"
     inkscape:window-height="989"
     id="namedview24"
     showgrid="false"
     units="mm"
     showborder="false"
     inkscape:zoom="2.0988795"
     inkscape:cx="157.63917"
     inkscape:cy="-9.9720126"
     inkscape:window-x="1680"
     inkscape:window-y="27"
     inkscape:window-maximized="1"
     inkscape:current-layer="svg22" />
  <g
     id="g73"
     transform="translate(-5.8208282)">
    <text
       id="text12"
       font-size="8.467"
       font-weight="700"
       style="font-style:normal;font-variant:normal;font-weight:bold;font-stretch:normal;font-size:8.46665955px;font-family:'DejaVu Sans';-inkscape-font-specification:'DejaVu Sans, Bold';font-variant-ligatures:normal;font-variant-caps:normal;font-variant-numeric:normal;font-feature-settings:normal;text-align:start;writing-mode:lr-tb;text-anchor:start;stroke-width:0.35299999"
       x="4.9168844"
       y="6.2838488">
      <tspan
         style="font-style:normal;font-variant:normal;font-weight:bold;font-stretch:normal;font-size:8.46665955px;font-family:'DejaVu Sans';-inkscape-font-specification:'DejaVu Sans, Bold';font-variant-ligatures:normal;font-variant-caps:normal;font-variant-numeric:normal;font-feature-settings:normal;text-align:start;writing-mode:lr-tb;text-anchor:start"
         id="tspan10"
         x="4.9168844"
         y="6.2838488">COMPUTERBANK</tspan>
    </text>
    <text
       id="text16"
       font-size="2.117"
       font-weight="400"
       style="font-style:normal;font-variant:normal;font-weight:normal;font-stretch:normal;font-size:5.64443922px;font-family:'DejaVu Sans';-inkscape-font-specification:'DejaVu Sans, Normal';font-variant-ligatures:normal;font-variant-caps:normal;font-variant-numeric:normal;font-feature-settings:normal;text-align:start;writing-mode:lr-tb;text-anchor:start;fill:#4a5767;stroke-width:0.35299999"
       x="42.117001"
       y="14.030074">
      <tspan
         style="font-style:normal;font-variant:normal;font-weight:normal;font-stretch:normal;font-size:5.64443922px;font-family:'DejaVu Sans';-inkscape-font-specification:'DejaVu Sans, Normal';font-variant-ligatures:normal;font-variant-caps:normal;font-variant-numeric:normal;font-feature-settings:normal;text-align:start;writing-mode:lr-tb;text-anchor:start"
         id="tspan14"
         font-size="4.939"
         x="42.117001"
         y="14.030074">NEW ENGLAND</tspan>
    </text>
  </g>
  <path
     overflow="visible"
     style="color:#000000;text-indent:0;text-transform:none;overflow:visible;fill:#4389e4"
     d="m 103.677,0.01 3.3,1.1 c 0.436,2.23 0.605,4.573 0.612,6.902 -0.921,0.309 -2.404,0.156 -3.57,-0.033 0.002,-2.661 -0.165,-5.32 -0.342,-7.97 z m -0.354,0.875 c 0.274,4.195 0.488,8.385 0.007,12.56 l -4.414996,-1.912 v -0.49 H 101.505 a 0.214,0.214 0 0 0 0.207,-0.205 c 0,-2.365 0,-5.161 -0.393,-8.498 z M 89.146004,1.574 100.842,1.877 c 0.44,3.447 0.457,6.31 0.457,8.755 H 89.461004 c 0.136,-2.337 -0.02,-5.744 -0.316,-9.058 z M 105.314,2.649 c 0.196,0.785 0.2,1.809 0.2,2.22 a 0.214,0.214 0 0 0 0.206,0.21 c 0.109,0 0.208,-0.1 0.206,-0.21 0,-0.411 0.003,-1.453 -0.212,-2.317 a 0.213,0.213 0 0 0 -0.213,-0.16 c -0.187,0.051 -0.187,0.257 -0.187,0.257 z m -1.302,5.749 c 1.12,0.181 2.52,0.348 3.57,0.045 a 64.987,64.987 0 0 1 -0.206,4.699 l -0.586,0.116 -0.31,-0.296 a 0.21,0.21 0 0 0 -0.173,-0.058 l -1.444,0.206 a 0.209,0.209 0 0 0 -0.142,0.09 l -0.367,0.54 -0.677,0.142 c 0.23,-1.828 0.322,-3.656 0.335,-5.484 z m -10.045996,2.646 h 1.856 v 0.83 a 0.214,0.214 0 0 0 0.206,0.206 h 0.94 l 1.419,1.596 -1.457,-0.148 -0.78,-0.585 a 0.208,0.208 0 0 0 -0.141,-0.04 l -2.269,0.207 a 0.21,0.21 0 0 0 -0.167,0.11 l -0.361,0.727 -1.553,0.154 1.147,-2.021 h 0.954 a 0.214,0.214 0 0 0 0.206,-0.206 z"
     id="path18"
     inkscape:connector-curvature="0" />
  <path
     d="M 84.074649,0 V 14.11"
     stroke-miterlimit="10"
     id="path20"
     inkscape:connector-curvature="0"
     style="fill:none;stroke:#000000;stroke-width:1.05799997;stroke-miterlimit:10" />
</svg>
