<svg width="406.64" height="53.333" viewBox="0 0 107.58875 14.110932" xmlns="http://www.w3.org/2000/svg"><g font-family="'DejaVu Sans', 'sans-serif'" stroke-width=".353"><text x="4.917" y="6.284" font-size="8.467" font-weight="bold" style="font-feature-settings:normal;font-variant-caps:normal;font-variant-ligatures:normal;font-variant-numeric:normal" transform="translate(-5.82)"><tspan x="4.917" y="6.284" style="font-feature-settings:normal;font-variant-caps:normal;font-variant-ligatures:normal;font-variant-numeric:normal">COMPUTERBANK</tspan></text><text x="42.117" y="14.03" fill="#4a5767" font-size="5.644" style="font-feature-settings:normal;font-variant-caps:normal;font-variant-ligatures:normal;font-variant-numeric:normal" transform="translate(-5.82)"><tspan x="42.117" y="14.03" style="font-feature-settings:normal;font-variant-caps:normal;font-variant-ligatures:normal;font-variant-numeric:normal">NEW ENGLAND</tspan></text></g><path d="M103.68.01l3.3 1.1c.436 2.23.605 4.573.612 6.902-.921.309-2.404.156-3.57-.033.002-2.661-.165-5.32-.342-7.97zm-.354.875c.274 4.195.488 8.385.007 12.56l-4.415-1.912v-.49h2.59a.214.214 0 0 0 .207-.205c0-2.365 0-5.161-.393-8.498zm-14.177.689l11.696.303c.44 3.447.457 6.31.457 8.755H89.464c.136-2.337-.02-5.744-.316-9.058zm16.168 1.075c.196.785.2 1.809.2 2.22a.214.214 0 0 0 .206.21c.109 0 .208-.1.206-.21 0-.411.003-1.453-.212-2.317a.213.213 0 0 0-.213-.16c-.187.051-.187.257-.187.257zm-1.302 5.749c1.12.181 2.52.348 3.57.045a64.987 64.987 0 0 1-.206 4.699l-.586.116-.31-.296a.21.21 0 0 0-.173-.058l-1.444.206a.209.209 0 0 0-.142.09l-.367.54-.677.142c.23-1.828.322-3.656.335-5.484zm-10.046 2.646h1.856v.83a.214.214 0 0 0 .206.206h.94l1.419 1.596-1.457-.148-.78-.585a.208.208 0 0 0-.141-.04l-2.269.207a.21.21 0 0 0-.167.11l-.361.727-1.553.154 1.147-2.021h.954a.214.214 0 0 0 .206-.206z" color="#000" fill="#4389e4" overflow="visible" style="text-indent:0;text-transform:none"/><path d="M84.075 0v14.11" fill="none" stroke="#000" stroke-miterlimit="10" stroke-width="1.058"/></svg>
