<?xml version="1.0" encoding="UTF-8"?>
<svg width="406.64" height="53.333" version="1.1" viewBox="0 0 107.58875 14.110932" xmlns="http://www.w3.org/2000/svg" xmlns:cc="http://creativecommons.org/ns#" xmlns:dc="http://purl.org/dc/elements/1.1/" xmlns:rdf="http://www.w3.org/1999/02/22-rdf-syntax-ns#">
 <metadata>
  <rdf:RDF>
   <cc:Work rdf:about="">
    <dc:format>image/svg+xml</dc:format>
    <dc:type rdf:resource="http://purl.org/dc/dcmitype/StillImage"/>
    <dc:title/>
   </cc:Work>
  </rdf:RDF>
 </metadata>
 <g transform="translate(-5.8208 -.26458)" font-family="'DejaVu Sans'" stroke-width=".353">
  <text x="4.9168844" y="7.3421812" font-size="8.4667px" font-weight="bold" style="font-feature-settings:normal;font-variant-caps:normal;font-variant-ligatures:normal;font-variant-numeric:normal">
   <tspan x="4.9168844" y="7.3421812" font-family="'DejaVu Sans'" font-size="8.4667px" font-weight="bold" style="font-feature-settings:normal;font-variant-caps:normal;font-variant-ligatures:normal;font-variant-numeric:normal">COMPUTERBANK</tspan>
  </text>
  <text x="42.117001" y="13.500908" fill="#4a5767" font-size="5.6444px" style="font-feature-settings:normal;font-variant-caps:normal;font-variant-ligatures:normal;font-variant-numeric:normal">
   <tspan x="42.117001" y="13.500908" font-family="'DejaVu Sans'" font-size="5.6444px" style="font-feature-settings:normal;font-variant-caps:normal;font-variant-ligatures:normal;font-variant-numeric:normal">NEW ENGLAND</tspan>
  </text>
 </g>
 <path d="m103.68 0.01 3.3 1.1c0.436 2.23 0.605 4.573 0.612 6.902-0.921 0.309-2.404 0.156-3.57-0.033 2e-3 -2.661-0.165-5.32-0.342-7.97zm-0.354 0.875c0.274 4.195 0.488 8.385 7e-3 12.56l-4.415-1.912v-0.49h2.59a0.214 0.214 0 0 0 0.207 -0.205c0-2.365 0-5.161-0.393-8.498zm-14.177 0.689 11.696 0.303c0.44 3.447 0.457 6.31 0.457 8.755h-11.838c0.136-2.337-0.02-5.744-0.316-9.058zm16.168 1.075c0.196 0.785 0.2 1.809 0.2 2.22a0.214 0.214 0 0 0 0.206 0.21c0.109 0 0.208-0.1 0.206-0.21 0-0.411 3e-3 -1.453-0.212-2.317a0.213 0.213 0 0 0 -0.213 -0.16c-0.187 0.051-0.187 0.257-0.187 0.257zm-1.302 5.749c1.12 0.181 2.52 0.348 3.57 0.045a64.987 64.987 0 0 1 -0.206 4.699l-0.586 0.116-0.31-0.296a0.21 0.21 0 0 0 -0.173 -0.058l-1.444 0.206a0.209 0.209 0 0 0 -0.142 0.09l-0.367 0.54-0.677 0.142c0.23-1.828 0.322-3.656 0.335-5.484zm-10.046 2.646h1.856v0.83a0.214 0.214 0 0 0 0.206 0.206h0.94l1.419 1.596-1.457-0.148-0.78-0.585a0.208 0.208 0 0 0 -0.141 -0.04l-2.269 0.207a0.21 0.21 0 0 0 -0.167 0.11l-0.361 0.727-1.553 0.154 1.147-2.021h0.954a0.214 0.214 0 0 0 0.206 -0.206z" color="#000000" fill="#4389e4" overflow="visible" style="text-indent:0;text-transform:none"/>
 <path d="m84.075 0v14.11" fill="none" stroke="#000" stroke-miterlimit="10" stroke-width="1.058"/>
</svg>
